<?xml version="1.0" standalone="no"?>
<!DOCTYPE svg PUBLIC "-//W3C//DTD SVG 20010904//EN"
 "http://www.w3.org/TR/2001/REC-SVG-20010904/DTD/svg10.dtd">
<svg version="1.0" xmlns="http://www.w3.org/2000/svg"
 width="96.000000pt" height="96.000000pt" viewBox="0 0 96.000000 96.000000"
 preserveAspectRatio="xMidYMid meet">
<metadata>
Created by potrace 1.14, written by Peter Selinger 2001-2017
</metadata>
<g transform="translate(0.000000,96.000000) scale(0.100000,-0.100000)"
fill="#000000" stroke="none">
<path d="M412 860 c-39 -24 -61 -57 -68 -101 -6 -36 -7 -36 -33 -23 -79 41
-181 -17 -194 -111 -6 -40 17 -95 51 -122 l27 -23 -28 -22 c-32 -26 -57 -90
-50 -127 16 -93 125 -149 199 -104 20 13 22 11 28 -25 11 -73 69 -121 141
-118 70 3 120 48 131 116 6 37 7 37 33 24 91 -48 207 39 194 145 -5 40 -48
101 -72 101 -11 0 -6 9 17 28 36 30 62 92 55 131 -16 91 -118 147 -194 107
-26 -13 -27 -13 -33 24 -6 41 -36 84 -69 102 -36 19 -101 18 -135 -2z"/>
</g>
</svg>
